<svg width="141" height="25" viewBox="0 0 141 25" fill="none" xmlns="http://www.w3.org/2000/svg">
<path d="M4.53228 24.9714L7.74375 15.427L0.000207392 10.2346H9.48454L12.8761 -5.05679e-05L16.3277 10.2346H25.752L18.0084 15.427L21.2799 24.9714L12.8761 18.8786L4.53228 24.9714ZM33.3443 24.9714L36.5557 15.427L28.8122 10.2346H38.2965L41.6881 -5.05679e-05L45.1397 10.2346H54.564L46.8204 15.427L50.0919 24.9714L41.6881 18.8786L33.3443 24.9714ZM62.1563 24.9714L65.3677 15.427L57.6242 10.2346H67.1085L70.5001 -5.05679e-05L73.9517 10.2346H83.376L75.6324 15.427L78.9039 24.9714L70.5001 18.8786L62.1563 24.9714ZM90.9683 24.9714L94.1797 15.427L86.4362 10.2346H95.9205L99.3121 -5.05679e-05L102.764 10.2346H112.188L104.444 15.427L107.716 24.9714L99.3121 18.8786L90.9683 24.9714ZM119.78 24.9714L122.992 15.427L115.248 10.2346H124.733L128.124 -5.05679e-05L131.576 10.2346H141L133.256 15.427L136.528 24.9714L128.124 18.8786L119.78 24.9714Z" fill="#B4161B"/>
</svg>
